<?xml version="1.0" encoding="UTF-8"?>
<!DOCTYPE svg PUBLIC "-//W3C//DTD SVG 1.1//EN" "http://www.w3.org/Graphics/SVG/1.1/DTD/svg11.dtd">
<!-- Creator: CorelDRAW -->
<svg xmlns="http://www.w3.org/2000/svg" xml:space="preserve" width="0.8885in" height="0.306in" version="1.1" style="shape-rendering:geometricPrecision; text-rendering:geometricPrecision; image-rendering:optimizeQuality; fill-rule:evenodd; clip-rule:evenodd"
viewBox="0 0 362.23 124.75"
 xmlns:xlink="http://www.w3.org/1999/xlink"
 xmlns:xodm="http://www.corel.com/coreldraw/odm/2003">
 <defs>
  <style type="text/css">
   <![CDATA[
    .fil0 {fill:#373435;fill-rule:nonzero}
   ]]>
  </style>
 </defs>
 <g id="Layer_x0020_1">
  <metadata id="CorelCorpID_0Corel-Layer"/>
  <path class="fil0" d="M81.3 94.41c-0.78,10.36 -3.64,18.01 -8.46,22.93 -4.86,4.93 -11.96,7.41 -21.3,7.41 -4.14,0 -8.05,-0.71 -11.82,-2.14 -3.74,-1.43 -6.83,-3.36 -9.21,-5.81 -2.79,-2.92 -4.79,-6.15 -6.01,-9.65 -1.22,-3.53 -1.87,-8.19 -1.87,-14.03 0,-0.68 0.03,-1.83 0.1,-3.47 0.07,-1.66 0.1,-2.92 0.1,-3.81l0.41 -55.07 -9.82 0c-2.14,0 -4.08,0.3 -5.88,0.95 -1.77,0.61 -3.74,1.73 -5.84,3.33l-1.7 -0.88 1.49 -8.15c0.14,-0.92 0.54,-1.6 1.22,-2 0.71,-0.37 2.38,-0.58 5.03,-0.58l15.49 0 0 -1.7c0,-1.26 0.07,-2.62 0.24,-4.04 0.17,-1.43 0.44,-2.89 0.75,-4.42l23.24 -13.28 1.46 2.07c-1.49,2.35 -2.65,5 -3.43,8.02 -0.78,2.99 -1.39,7.44 -1.87,13.35l22.42 0c2.99,0 5.78,-0.41 8.39,-1.26 2.58,-0.82 5.23,-2.17 7.95,-4.04l1.8 2.79c-2.51,2.99 -5.54,5.37 -9.04,7.17 -3.53,1.8 -6.96,2.68 -10.36,2.68 -2.31,0 -4.89,-0.03 -7.68,-0.1 -2.82,-0.07 -4.55,-0.1 -5.13,-0.1 -1.26,0 -2.58,0 -3.97,0.03 -1.39,0.03 -2.85,0.1 -4.38,0.17l-0.61 63.46c0,3.57 0.24,6.66 0.71,9.24 0.44,2.61 1.12,4.52 1.97,5.81l2.82 4.18c1.09,1.53 2.24,2.75 3.5,3.67 1.26,0.95 2.72,1.63 4.38,2.11 2.78,-2.65 4.93,-6.29 6.42,-10.87 1.5,-4.59 2.31,-9.99 2.45,-16.24l16.04 2.28z"/>
  <path id="_1" class="fil0" d="M196.44 124.21l0 -1.09c0,-2.72 -0.37,-5.5 -1.16,-8.36 -0.75,-2.85 -1.94,-6.05 -3.53,-9.58l-20.59 -43.45 -18.75 49.81c0.41,1.19 0.75,2.55 1.02,4.04 0.27,1.49 0.44,3.26 0.51,5.33l-20.79 3.3 0 -1.09c0,-2.79 -0.37,-5.64 -1.12,-8.53 -0.78,-2.89 -1.94,-6.01 -3.53,-9.41l-27.08 -56.5 -0.88 -1.77c-4.86,-10.29 -9.27,-15.63 -13.25,-15.93l0 -2.31 21.98 -9.92c3.53,7.03 7.03,14.2 10.5,21.5 3.5,7.3 6.93,14.71 10.33,22.29l18.79 42.03 18.01 -51.2 -2.31 -4.69 -0.78 -1.77c-4.86,-10.29 -9.31,-15.63 -13.32,-15.93l0 -2.31 22.29 -9.92c0.24,0.48 0.68,1.32 1.29,2.58 6.69,13.79 13.11,27.55 19.3,41.21l18.82 42.03 10.9 -31.39c2.96,-8.73 5.2,-16.48 6.69,-23.14 1.46,-6.66 2.21,-12.43 2.21,-17.29 0,-1.73 -0.07,-3.5 -0.24,-5.37 -0.17,-1.87 -0.41,-3.77 -0.75,-5.78l14.07 -0.1c0.07,0.54 0.14,1.05 0.17,1.6 0.03,0.54 0.03,1.09 0.03,1.7 0,4.79 -3.13,15.46 -9.38,32.07l-0.41 0.99 -19.94 53.68c0.48,1.19 0.85,2.55 1.09,4.04 0.27,1.49 0.44,3.26 0.51,5.33l-20.69 3.3z"/>
  <path id="_2" class="fil0" d="M324.93 115.58c6.18,-3.5 10.53,-7.98 13.08,-13.39 2.55,-5.4 3.84,-13.05 3.84,-22.9 0,-14.88 -3.97,-26.53 -11.89,-35.03 -7.92,-8.49 -19.43,-13.45 -34.55,-14.91 -5.3,3.57 -9.24,8.39 -11.75,14.47 -2.52,6.08 -3.77,13.66 -3.77,22.83 0,9.14 1.12,16.48 3.4,21.98 2.24,5.5 6.08,10.6 11.52,15.32 3.7,3.16 8.29,5.95 13.73,8.29 5.43,2.34 9.61,3.53 12.54,3.53 0.48,0 1.12,-0.03 2,-0.1 0.85,-0.07 1.49,-0.1 1.87,-0.1zm-20.18 8.97l-2.38 0c-3.47,0 -7.78,-1.32 -12.91,-3.98 -5.16,-2.65 -10.26,-6.25 -15.29,-10.77 -4.65,-4.11 -8.22,-9.14 -10.63,-15.12 -2.41,-5.95 -3.64,-12.54 -3.64,-19.7 0,-11.59 3.64,-22.08 10.91,-31.43 7.27,-9.34 16.95,-16 29.05,-19.91l14.44 -4.89c14.13,0.99 25.65,6.18 34.55,15.53 8.94,9.34 13.39,20.96 13.39,34.82 0,12.81 -3.77,23.92 -11.35,33.29 -7.54,9.38 -17.7,15.56 -30.41,18.48l-15.73 3.67z"/>
 </g>
</svg>
