<?xml version="1.0" encoding="UTF-8"?>
<!DOCTYPE svg PUBLIC "-//W3C//DTD SVG 1.1//EN" "http://www.w3.org/Graphics/SVG/1.1/DTD/svg11.dtd">
<!-- Creator: CorelDRAW -->
<svg xmlns="http://www.w3.org/2000/svg" xml:space="preserve" width="8.5in" height="11in" version="1.1" style="shape-rendering:geometricPrecision; text-rendering:geometricPrecision; image-rendering:optimizeQuality; fill-rule:evenodd; clip-rule:evenodd"
viewBox="0 0 8500 11000"
 xmlns:xlink="http://www.w3.org/1999/xlink"
 xmlns:xodm="http://www.corel.com/coreldraw/odm/2003">
 <defs>
  <style type="text/css">
   <![CDATA[
    .fil1 {fill:#96989A}
    .fil0 {fill:#96989A;fill-rule:nonzero}
   ]]>
  </style>
 </defs>
 <g id="Layer_x0020_1">
  <metadata id="CorelCorpID_0Corel-Layer"/>
  <path class="fil0" d="M1203.12 2555.33l-1 111.61c2.65,7.62 9.7,15.66 21.3,24.19 11.6,8.45 26.51,16.49 44.82,24.11l2.41 0c18.97,0 34.22,-10.28 45.82,-30.74 11.6,-20.46 17.4,-47.48 17.4,-81.11 0,-27.09 -8.62,-50.87 -25.85,-71.5 -17.31,-20.63 -37.95,-31.57 -62.14,-32.89 -12.59,7.79 -22.87,16.82 -30.82,27.18 -7.95,10.35 -11.93,19.47 -11.93,27.43l0 1.74zm-52.12 274.25l2.9 -259c0,-7.13 -0.25,-13.26 -0.83,-18.56 -0.58,-5.22 -1.49,-9.94 -2.81,-13.92l-7.7 -24.52c-1,-4.06 -2.07,-6.55 -3.23,-7.54 -1.24,-1 -2.98,-1.49 -5.22,-1.49l-2.9 0 -2.16 -8.95 58.08 -15.99 1.41 3.4c7.95,19.72 11.93,33.39 11.93,41.02 13.59,-14 27.09,-25.11 40.6,-33.48 13.43,-8.37 26.76,-14 40.1,-16.9 27.93,3.73 51.54,16.65 70.68,38.86 19.14,22.12 28.75,47.81 28.75,76.89 0,38.53 -10.28,69.02 -30.91,91.56 -20.63,22.45 -53.61,39.36 -98.93,50.71 -6.96,-0.5 -14.25,-2.24 -21.79,-5.3 -7.46,-3.07 -16.65,-8.04 -27.51,-15l-1 105.8 -49.46 12.43z"/>
  <path id="_1" class="fil0" d="M1433.79 2728.16c0.41,-19.14 0.83,-39.44 1.07,-61.06 0.25,-21.63 0.33,-44.33 0.33,-68.11l0 -50.37c0,-24.44 -0.83,-40.02 -2.57,-46.98 -1.66,-6.87 -4.81,-10.27 -9.53,-10.27 -1.08,0 -1.91,0 -2.49,0.08 -0.58,0.08 -1.16,0.25 -1.82,0.41l0 -7.79 67.11 -10.44 0 244.01 -52.11 10.52z"/>
  <path id="_2" class="fil0" d="M1652.35 2503.96c-10.94,6.63 -20.55,17.89 -28.58,33.89 -8.04,15.91 -12.26,30.99 -12.59,45.24l-2.4 138.7 -49.22 6.38 2.9 -161.07 0 -4.64c0,-5.06 -0.33,-9.94 -1.07,-14.83 -0.75,-4.8 -1.74,-9.36 -2.98,-13.59l-7.29 -24.52c-0.99,-3.81 -1.99,-6.3 -3.15,-7.21 -1.08,-1 -2.9,-1.49 -5.3,-1.49l-2.9 0 -2.65 -9.44 58.74 -15.33c4.06,9.53 7.29,18.39 9.86,26.43 2.48,8.12 4.39,15.82 5.72,23.11 15.83,-16.07 30.07,-28.17 42.83,-36.29 12.76,-8.2 25.52,-13.43 38.28,-15.66 22.87,2.9 43.33,13.59 61.48,32.07 18.15,18.39 27.18,36.54 27.18,54.35 0,2.07 -0.08,4.72 -0.33,7.87 -0.25,3.15 -0.66,6.46 -1.16,9.86l-12.35 101.91c-0.5,3.56 -0.91,6.71 -1.24,9.37 -0.33,2.65 -0.41,4.22 -0.41,4.72 0,5.3 0.58,9.61 1.74,12.76 1.24,3.15 2.82,4.72 4.81,4.72 0.33,0 1.41,-0.17 3.4,-0.42 1.91,-0.25 3.81,-0.41 5.55,-0.58l0.99 10.03 -47.39 6.87c-1.74,0.33 -3.56,0.58 -5.3,0.75 -1.82,0.17 -3.31,0.25 -4.64,0.25 -1.99,0 -3.89,-1.91 -5.88,-5.63 -1.91,-3.73 -2.9,-7.96 -2.9,-12.68 0,-1.16 0.17,-3.89 0.5,-8.29 0.17,-2.57 0.33,-4.72 0.5,-6.38l10.94 -110.86c0.5,-5.05 0.91,-9.03 1.16,-12.01 0.25,-3.07 0.33,-5.22 0.33,-6.71 0,-14.25 -8.04,-28.09 -24.03,-41.51 -15.99,-13.43 -33.31,-20.13 -51.87,-20.13l-1.24 0z"/>
  <path id="_3" class="fil0" d="M1851.29 2728.16c0.41,-19.14 0.83,-39.44 1.07,-61.06 0.25,-21.63 0.33,-44.33 0.33,-68.11l0 -50.37c0,-24.44 -0.83,-40.02 -2.57,-46.98 -1.66,-6.87 -4.81,-10.27 -9.53,-10.27 -1.08,0 -1.91,0 -2.49,0.08 -0.58,0.08 -1.16,0.25 -1.82,0.41l0 -7.79 67.11 -10.44 0 244.01 -52.11 10.52z"/>
  <path id="_4" class="fil0" d="M2116.18 2709.77c15.08,-8.54 25.69,-19.47 31.9,-32.65 6.21,-13.17 9.36,-31.81 9.36,-55.84 0,-36.29 -9.69,-64.71 -29,-85.43 -19.3,-20.71 -47.39,-32.81 -84.26,-36.37 -12.93,8.7 -22.54,20.46 -28.67,35.3 -6.13,14.83 -9.2,33.31 -9.2,55.68 0,22.29 2.73,40.19 8.28,53.61 5.47,13.42 14.83,25.85 28.09,37.37 9.03,7.71 20.22,14.5 33.47,20.22 13.26,5.72 23.45,8.62 30.57,8.62 1.16,0 2.73,-0.08 4.89,-0.25 2.07,-0.17 3.65,-0.25 4.56,-0.25zm-49.22 21.87l-5.8 0c-8.45,0 -18.98,-3.23 -31.48,-9.69 -12.59,-6.46 -25.02,-15.25 -37.29,-26.27 -11.35,-10.02 -20.05,-22.29 -25.93,-36.87 -5.88,-14.5 -8.87,-30.57 -8.87,-48.06 0,-28.26 8.87,-53.85 26.6,-76.64 17.73,-22.78 41.34,-39.02 70.84,-48.55l35.22 -11.93c34.46,2.4 62.56,15.08 84.26,37.87 21.79,22.78 32.65,51.12 32.65,84.93 0,31.24 -9.2,58.33 -27.67,81.2 -18.39,22.87 -43.17,37.95 -74.15,45.07l-38.36 8.95z"/>
  <path id="_5" class="fil0" d="M2354.13 2503.96c-10.94,6.63 -20.55,17.89 -28.58,33.89 -8.04,15.91 -12.26,30.99 -12.59,45.24l-2.4 138.7 -49.22 6.38 2.9 -161.07 0 -4.64c0,-5.06 -0.33,-9.94 -1.07,-14.83 -0.75,-4.8 -1.74,-9.36 -2.98,-13.59l-7.29 -24.52c-0.99,-3.81 -1.99,-6.3 -3.15,-7.21 -1.08,-1 -2.9,-1.49 -5.3,-1.49l-2.9 0 -2.65 -9.44 58.74 -15.33c4.06,9.53 7.29,18.39 9.86,26.43 2.48,8.12 4.39,15.82 5.72,23.11 15.83,-16.07 30.07,-28.17 42.83,-36.29 12.76,-8.2 25.52,-13.43 38.28,-15.66 22.87,2.9 43.33,13.59 61.48,32.07 18.15,18.39 27.18,36.54 27.18,54.35 0,2.07 -0.08,4.72 -0.33,7.87 -0.25,3.15 -0.66,6.46 -1.16,9.86l-12.35 101.91c-0.5,3.56 -0.91,6.71 -1.24,9.37 -0.33,2.65 -0.41,4.22 -0.41,4.72 0,5.3 0.58,9.61 1.74,12.76 1.24,3.15 2.82,4.72 4.81,4.72 0.33,0 1.41,-0.17 3.4,-0.42 1.91,-0.25 3.81,-0.41 5.55,-0.58l0.99 10.03 -47.39 6.87c-1.74,0.33 -3.56,0.58 -5.3,0.75 -1.82,0.17 -3.31,0.25 -4.64,0.25 -1.99,0 -3.89,-1.91 -5.88,-5.63 -1.91,-3.73 -2.9,-7.96 -2.9,-12.68 0,-1.16 0.17,-3.89 0.5,-8.29 0.17,-2.57 0.33,-4.72 0.5,-6.38l10.94 -110.86c0.5,-5.05 0.91,-9.03 1.16,-12.01 0.25,-3.07 0.33,-5.22 0.33,-6.71 0,-14.25 -8.04,-28.09 -24.03,-41.51 -15.99,-13.43 -33.31,-20.13 -51.87,-20.13l-1.24 0z"/>
  <path id="_6" class="fil0" d="M2631.94 2379.67l46.4 0 33.15 94.87 34.71 -94.87 44 0 0 6.05 -7.29 0.41c-3.39,0.33 -5.96,1.57 -7.62,3.65 -1.74,2.15 -2.57,5.22 -2.57,9.28l0 91.06c0,4.06 0.83,7.13 2.57,9.2 1.66,2.07 4.23,3.31 7.62,3.65l7.29 0.5 0 6.96 -58.33 0 0 -6.96 7.54 -0.5c3.4,-0.33 5.96,-1.57 7.79,-3.73 1.74,-2.24 2.65,-5.22 2.65,-9.11l0 -94.04 -41.76 114.84 -4.97 0 -41.76 -115.25 0 94.45c0,3.9 0.91,6.88 2.65,9.11 1.82,2.16 4.39,3.4 7.79,3.73l8.04 0.5 0 6.96 -47.89 0 0 -6.96 8.29 -0.5c3.23,-0.33 5.72,-1.57 7.54,-3.73 1.74,-2.24 2.65,-5.22 2.65,-9.11l0 -90.15c0,-3.89 -0.91,-6.87 -2.65,-9.11 -1.82,-2.15 -4.31,-3.4 -7.54,-3.73l-8.29 -0.99 0 -6.46zm-128.76 0l107.8 0 2.65 44.16 -6.54 0c-1.24,-12.68 -4.56,-21.96 -9.78,-27.84 -5.22,-5.88 -12.84,-8.87 -22.78,-8.87l-4.14 0 0 102.99c0,3.9 0.83,6.88 2.57,9.11 1.66,2.16 4.14,3.4 7.37,3.73l7.95 0.5 0 6.96 -61.72 0 0 -6.96 7.54 -0.5c3.4,-0.33 5.96,-1.57 7.79,-3.73 1.74,-2.24 2.65,-5.22 2.65,-9.11l0 -102.99 -4.15 0c-10.35,0 -18.15,2.9 -23.44,8.78 -5.22,5.8 -8.54,15.08 -9.86,27.92l-6.3 0 2.4 -44.16z"/>
  <path class="fil1" d="M1535 3080.96c109.5,3.23 164.6,6.13 281,17.92 0,0 0,0 0,0 385.91,39.07 671.18,26.6 960.2,-249.67 0,0 0,0 0,0 85.89,-82.1 95.99,-127.98 80.98,-107.79 0,0 0,0 0,0 -80.14,107.74 -224.01,219.91 -351.05,277.93 0,0 0,0 0,0 -354.87,162.07 -814.81,22.44 -1009.45,44.37 0,0 0,0 0,0 -16.31,1.84 -16.75,11.97 -0.71,14.69 0,0 0,0 0,0 3.91,0.66 8.46,1.65 39.04,2.56zm583.46 148.07c51.08,48.71 73.26,64.76 146.39,73.93 0,0 0,0 0,0 9.56,1.2 9.56,1.2 -0.96,2.89 0,0 0,0 0,0 -137.68,22.16 -151.64,-5.95 -266.33,-68.65 0,0 0,0 0,0 -9.39,-5.14 -9.39,-5.14 -1.04,5.61 0,0 0,0 0,0 43.8,56.35 55.79,71.61 110.42,111.14 0,0 0,0 0,0 -56.09,11.72 -127.21,26.8 -193.94,14.81 0,0 0,0 0,0 -83.63,-15.03 -178.6,-102.11 -173.72,-88 0,0 0,0 0,0 21.23,61.44 34.7,67.27 84,97.19 0,0 0,0 0,0 7.94,4.81 -89.22,3.47 -155.94,-57.68 0,0 0,0 0,0 -45.07,-41.31 -74.02,-92.87 -98.81,-141.92 0,0 0,0 0,0 -46.91,-92.83 23.25,46.37 -75.47,57.33 0,0 0,0 0,0 -23,2.55 2.8,-2.13 15.94,-17.46 0,0 0,0 0,0 25.43,-29.67 11.17,-66.26 -11.79,-90.73 0,0 0,0 0,0 13.41,57.1 -35.58,75.57 -73.67,123.17 0,0 0,0 0,0 -2.55,3.2 -2.55,3.2 -1.54,-1.81 0,0 0,0 0,0 12.66,-62.94 53.25,-74.61 56.39,-96.88 0,0 0,0 0,0 1.78,-12.6 -4.26,-29.67 -16.45,-36 0,0 0,0 0,0 -5.22,-2.7 -1.1,7.56 -11.18,30.7 0,0 0,0 0,0 -22.37,51.39 -49.39,48.43 -85.42,37.4 0,0 0,0 0,0 56.85,-7.85 84.22,-39.94 51.56,-94.61 0,0 0,0 0,0 -81.19,11.42 -164.33,30.81 -241.92,63.26 0,0 0,0 0,0 -55.19,23.07 -90.64,32.8 -15.92,-24.45 0,0 0,0 0,0 57.17,-43.8 172.4,-60.85 239.11,-70.15 0,0 0,0 0,0 18.02,-2.51 19.08,-3.31 19.26,-7.11 0,0 0,0 0,0 1.67,-34.69 -33.56,-40.32 -58.5,-43.51 0,0 0,0 0,0 52.01,-30.35 67.04,-3.15 71.43,-4.89 0,0 0,0 0,0 18.35,-7.27 17.76,-36.87 7.9,-54.75 0,0 0,0 0,0 -8.41,-15.26 -20.68,-20.14 -15.08,-19.63 0,0 0,0 0,0 32.86,2.99 40.22,19.89 45.52,51.24 0,0 0,0 0,0 19.93,-26.98 53.69,-47.51 76.96,-16.17 0,0 0,0 0,0 5.07,6.83 -10.81,-8.81 -39.9,9.75 0,0 0,0 0,0 -48.98,31.24 -2.62,90.8 48.43,15.86 0,0 0,0 0,0 57.2,-83.96 49.23,-188.09 214.11,-162.73 0,0 0,0 0,0 6.35,0.97 6.35,0.97 -0.44,6.4 0,0 0,0 0,0 -37.65,30.06 -78.71,66.41 -93.67,114.48 0,0 0,0 0,0 -6.28,20.17 136.02,-123.59 246.31,-128.97 0,0 0,0 0,0 3.04,-0.15 -12.98,13.17 -23.95,28.38 0,0 0,0 0,0 40.21,-10.6 61.93,-17.49 105.14,-19.03 0,0 0,0 0,0 -49.88,25.16 -66.11,34.61 -98.54,80.05 0,0 0,0 0,0 72.59,-50.2 241.52,-115.77 313.26,-47.2 0,0 0,0 0,0 -129.56,27.54 -120.19,117.55 -31.17,91.88 0,0 0,0 0,0 84.9,-24.49 148.01,-102.09 191.19,-124.54 0,0 0,0 0,0 25.98,-13.51 64.44,-14.78 87.86,-16.59 0,0 0,0 0,0 -73.98,66.37 54.27,110.38 121.7,-2.31 0,0 0,0 0,0 46.91,-78.4 4.76,-131.77 -48.7,-121.63 0,0 0,0 0,0 -1.93,0.36 169.17,-54.05 64.44,153.85 0,0 0,0 0,0 9.85,-5.24 23.57,-11.37 40.24,-30.94 0,0 0,0 0,0 42.1,-49.41 76.94,-142.29 125.48,-193.09 0,0 0,0 0,0 24.47,-25.62 20.78,6.59 47.9,3.93 0,0 0,0 0,0 43.42,-4.26 65.74,-69.97 66.36,-103.44 0,0 0,0 0,0 1.48,-79.67 42.96,3.71 55.65,-97.19 0,0 0,0 0,0 2.72,-21.56 -3.98,-33.81 3.96,-22.33 0,0 0,0 0,0 39.25,56.69 22.96,133.18 -9.43,189.89 0,0 0,0 0,0 -12.96,22.68 -19.27,23.2 -11.16,21.67 0,0 0,0 0,0 32.78,-6.21 64.41,-37.15 70.95,-74.44 0,0 0,0 0,0 2.77,-15.82 2.91,56.58 -17.77,114.53 0,0 0,0 0,0 -12.06,33.76 -45.89,66.78 -41.28,108.01 0,0 0,0 0,0 3.81,34.04 54.89,-38.85 20.98,56.72 0,0 0,0 0,0 -52.13,139.63 -115.59,182.54 -239.38,244.09 0,0 0,0 0,0 57.33,3.31 71.24,-12.77 124.82,-35.1 0,0 0,0 0,0 5.3,-2.2 5.3,-2.2 -4.39,10.16 0,0 0,0 0,0 -75.36,96.17 -115.04,77.03 -223.93,102.62 0,0 0,0 0,0 -45.8,10.76 -101.44,31.93 -134.94,45.14 0,0 0,0 0,0 71.23,-5.89 110.81,-13.62 174.37,12.07 0,0 0,0 0,0 1.41,0.57 -257.28,115.25 -423.15,70.59 0,0 0,0 0,0 -39.81,-10.72 -79,-26.38 -108.58,-34.77z"/>
 </g>
</svg>
