<?xml version="1.0" encoding="UTF-8"?>
<!DOCTYPE svg PUBLIC "-//W3C//DTD SVG 1.1//EN" "http://www.w3.org/Graphics/SVG/1.1/DTD/svg11.dtd">
<!-- Creator: CorelDRAW -->
<svg xmlns="http://www.w3.org/2000/svg" xml:space="preserve" width="0.805669in" height="0.2595in" version="1.1" style="shape-rendering:geometricPrecision; text-rendering:geometricPrecision; image-rendering:optimizeQuality; fill-rule:evenodd; clip-rule:evenodd"
viewBox="0 0 304.98 98.23"
 xmlns:xlink="http://www.w3.org/1999/xlink"
 xmlns:xodm="http://www.corel.com/coreldraw/odm/2003">
 <defs>
  <style type="text/css">
   <![CDATA[
    .fil0 {fill:#373435;fill-rule:nonzero}
   ]]>
  </style>
 </defs>
 <g id="Layer_x0020_1">
  <metadata id="CorelCorpID_0Corel-Layer"/>
  <path class="fil0" d="M60.38 89.9c5.74,-3.25 9.78,-7.41 12.14,-12.43 2.37,-5.01 3.56,-12.11 3.56,-21.26 0,-13.82 -3.69,-24.64 -11.04,-32.52 -7.35,-7.89 -18.04,-12.49 -32.08,-13.85 -4.92,3.31 -8.58,7.79 -10.91,13.44 -2.34,5.65 -3.5,12.68 -3.5,21.2 0,8.49 1.04,15.3 3.16,20.41 2.08,5.11 5.65,9.84 10.69,14.23 3.44,2.93 7.7,5.52 12.75,7.7 5.05,2.18 8.93,3.28 11.64,3.28 0.44,0 1.04,-0.03 1.86,-0.1 0.79,-0.06 1.39,-0.09 1.73,-0.09zm-18.74 8.33l-2.21 0c-3.22,0 -7.22,-1.23 -11.99,-3.69 -4.79,-2.46 -9.53,-5.8 -14.2,-10 -4.32,-3.82 -7.63,-8.49 -9.87,-14.04 -2.24,-5.52 -3.38,-11.64 -3.38,-18.3 0,-10.76 3.38,-20.51 10.13,-29.18 6.75,-8.68 15.74,-14.86 26.97,-18.49l13.41 -4.54c13.12,0.92 23.82,5.74 32.08,14.42 8.3,8.68 12.43,19.46 12.43,32.33 0,11.89 -3.5,22.21 -10.54,30.91 -7,8.71 -16.43,14.45 -28.23,17.16l-14.61 3.41z"/>
  <path id="_1" class="fil0" d="M150.98 11.55c-4.16,2.52 -7.82,6.81 -10.88,12.9 -3.06,6.06 -4.67,11.8 -4.79,17.22l-0.92 52.81 -18.74 2.43 1.1 -61.32 0 -1.77c0,-1.93 -0.13,-3.79 -0.41,-5.65 -0.28,-1.83 -0.66,-3.56 -1.14,-5.17l-2.78 -9.34c-0.38,-1.45 -0.76,-2.4 -1.2,-2.74 -0.41,-0.38 -1.1,-0.57 -2.02,-0.57l-1.1 0 -1.01 -3.6 22.37 -5.84c1.55,3.63 2.78,7 3.75,10.06 0.95,3.09 1.67,6.03 2.18,8.8 6.02,-6.12 11.45,-10.72 16.31,-13.82 4.86,-3.12 9.72,-5.11 14.57,-5.96 8.71,1.1 16.5,5.17 23.41,12.21 6.91,7 10.35,13.91 10.35,20.69 0,0.79 -0.03,1.8 -0.13,3 -0.09,1.2 -0.25,2.46 -0.44,3.75l-4.7 38.8c-0.19,1.36 -0.35,2.56 -0.47,3.56 -0.13,1.01 -0.16,1.61 -0.16,1.8 0,2.02 0.22,3.66 0.66,4.86 0.47,1.2 1.07,1.8 1.83,1.8 0.13,0 0.54,-0.06 1.29,-0.16 0.73,-0.09 1.45,-0.16 2.11,-0.22l0.38 3.82 -18.04 2.62c-0.66,0.13 -1.36,0.22 -2.02,0.28 -0.69,0.06 -1.26,0.09 -1.77,0.09 -0.76,0 -1.48,-0.73 -2.24,-2.14 -0.73,-1.42 -1.1,-3.03 -1.1,-4.83 0,-0.44 0.06,-1.48 0.19,-3.16 0.06,-0.98 0.13,-1.8 0.19,-2.43l4.16 -42.21c0.19,-1.93 0.35,-3.44 0.44,-4.58 0.1,-1.17 0.13,-1.99 0.13,-2.55 0,-5.43 -3.06,-10.69 -9.15,-15.8 -6.09,-5.11 -12.68,-7.66 -19.75,-7.66l-0.47 0z"/>
  <path id="_2" class="fil0" d="M304.98 70.98c-2.02,7.32 -5.02,12.84 -8.96,16.5 -3.94,3.66 -9.68,6.18 -17.29,7.54l-17.82 3.22c-12.52,-1.61 -22.49,-6.62 -29.9,-15.05 -7.41,-8.45 -11.14,-18.96 -11.14,-31.51 0,-13.44 3.91,-24.13 11.73,-32.08 7.82,-7.95 20.92,-14.48 39.27,-19.59 5.36,0.13 10.69,1.42 15.93,3.88 5.27,2.46 10.41,6.03 15.39,10.66l-12.9 10.82c-5.08,-5.02 -10.51,-9.12 -16.34,-12.37 -5.8,-3.25 -10.22,-4.86 -13.16,-4.86 -5.39,0 -10.13,3.28 -14.23,9.84 -4.07,6.56 -6.34,14.95 -6.78,25.2l34.23 0.73c0.47,0 1.26,0.03 2.33,0.09 1.1,0.06 1.89,0.1 2.37,0.1 3.22,0 6.09,-0.35 8.61,-1.01 2.52,-0.69 5.02,-1.74 7.48,-3.16l1.77 3.06c-5.55,3.44 -10.73,5.93 -15.55,7.41 -4.79,1.48 -10.22,2.21 -16.25,2.21l-24.61 0.19c0.98,10.22 5.36,19.05 13.16,26.5 7.82,7.44 15.71,11.17 23.72,11.17 4.2,0 7.76,-1.96 10.66,-5.9 2.87,-3.94 5.14,-9.81 6.75,-17.57l11.51 3.97z"/>
 </g>
</svg>
